<svg xmlns="http://www.w3.org/2000/svg" xmlns:xlink="http://www.w3.org/1999/xlink" id="Layer_1" x="0" y="0" version="1.1" viewBox="0 0 127.1 128.2" xml:space="preserve" style="enable-background:new 0 0 127.1 128.2"><style type="text/css">.st0{fill:#202943}</style><g id="Layer_2_1_"><g id="Layer_1-2"><rect width="15.4" height="15.5" class="st0"/><rect width="15.4" height="15.5" x="38.5" class="st0"/><rect width="15.4" height="15.5" x="77" class="st0"/><rect width="15.4" height="15.5" y="38.8" class="st0"/><rect width="15.4" height="15.5" x="38.5" y="38.8" class="st0"/><rect width="15.4" height="15.5" y="77.7" class="st0"/><ellipse cx="123.3" cy="7.8" class="st0" rx="3.8" ry="3.9"/><ellipse cx="123.3" cy="46.6" class="st0" rx="3.8" ry="3.9"/><ellipse cx="123.3" cy="85.4" class="st0" rx="3.8" ry="3.9"/><ellipse cx="123.3" cy="124.3" class="st0" rx="3.8" ry="3.9"/><ellipse cx="84.7" cy="46.6" class="st0" rx="3.8" ry="3.9"/><ellipse cx="84.7" cy="85.4" class="st0" rx="3.8" ry="3.9"/><ellipse cx="84.7" cy="124.3" class="st0" rx="3.8" ry="3.9"/><ellipse cx="46.2" cy="85.4" class="st0" rx="3.8" ry="3.9"/><ellipse cx="46.2" cy="124.3" class="st0" rx="3.8" ry="3.9"/><ellipse cx="7.7" cy="124.3" class="st0" rx="3.8" ry="3.9"/></g></g></svg>